# xmcd
#
# Track frame offsets: 
#        150
#        18884
#        40667
#        61558
#        87980
#        112730
#        138884
#        158341
#        178464
#        212000
#
# Disc length: 3195 seconds
#
# Revision: 0
# Processed by: cddbd v1.4PL0 Copyright (c) Steve Scherf et al.
# Submitted via: ExactAudioCopy v0.95a3
#
DISCID=6f0c790a
DTITLE=L.A. Jones and the Blues Messengers - Jumpin' at Shadows
DYEAR=1994
DGENRE=Blues
TTITLE0=I Am A Loner
TTITLE1=She Can't Not Be Satisfied
TTITLE2=Stop Now
TTITLE3=Goin' On The Road
TTITLE4=Pick Up The Pieces
TTITLE5=Long Distance Love
TTITLE6=Girl I Been Dreamin' About
TTITLE7=I Get The Job Done
TTITLE8=Jumpin' At Shadows
TTITLE9=Somewhere In Your Heart
EXTD=
EXTT0=
EXTT1=
EXTT2=
EXTT3=
EXTT4=
EXTT5=
EXTT6=
EXTT7=
EXTT8=
EXTT9=
PLAYORDER=
